<svg xmlns="http://www.w3.org/2000/svg" height="800" width="1200" viewBox="-14.4 -24 124.8 144"><path d="M0 0h96v96H0z"/><path d="M73.5 18.7v13.4c0 1.7-.7 2.7-2.1 3.6-1.4.9-3.3.9-4.8.2-2.5-1.1-4.8-2.1-7.1-2.9v6.4c5.5 1.4 9.2 3.2 12.2 6 4 3.8 6 9 6 15.6 0 .8 0 1.6-.1 2.3h13.3V6.1H59.5v5.4c3.5.5 7.1 1.3 10.8 2.3 2.2.5 3.2 2.7 3.2 4.9z" fill="#BD4031"/><path d="M54.5 32c-1.8-.3-3.5-.4-5.1-.4-4.1 0-6.1.7-6.6.9-.7.3-1.4 1.7-.6 2.5.2.2.4.4.6.5h11.6V32zM25.8 16.7c5-4.1 12.2-6.2 21.1-6.2 2.5 0 5.1.1 7.7.4V6.1H6.1v29.4h12v-.3c0-7.8 2.4-14.2 7.7-18.5z" fill="#AEC562"/><path d="M34.9 84.9c-.8-.1-1.6-.3-2.4-.5v6.5h22v-5.1c-2 .2-4.2.3-6.6.3-4.3.1-8.7-.3-13-1.2zm1.7-20.6c3.3 1 6.5 1.5 9.6 1.5 3.4 0 5.2-1 5.8-1.7.7-.7.9-1.6.3-2.3-.7-.8-1.1-1.2-5.6-2.2l-6.4-1.4c-2.9-.6-5.5-1.4-7.8-2.2v6.8c1.4.6 2.7 1.1 4.1 1.5z" fill="#FEF205"/><path d="M18.6 76.7V62.9c0-1.7.6-3 2.1-3.8 1.5-.9 3.5-.6 5 .2.6.3 1.1.6 1.7.9v-6.7c-1.3-.8-2.5-1.8-3.6-2.8-2.7-2.8-4.5-6.2-5.3-10.2H6.1v50.4h21.4v-7.8c-1.9-.5-3.8-1.1-5.6-1.8-2-.7-3.3-2.5-3.3-4.6z" fill="#D09B75"/><path d="M69.7 80c-2.8 2.3-6.2 3.9-10.2 4.9v6h31.4V67.5H77.1c-1 5.3-3.5 9.3-7.4 12.5z" fill="#9EC8E0"/><path d="M68.9 18.2v13.7c-3.5-1.6-7-2.8-10.3-3.6-3.4-.8-6.5-1.2-9.5-1.2-4 0-6.9.5-8.8 1.6-1.9 1.1-2.8 2.8-2.8 5.1 0 1.7.6 3.1 1.9 4 1.3 1 3.6 1.8 6.9 2.5l7.1 1.4c7.1 1.4 12.2 3.6 15.2 6.6 3 2.9 4.5 7.1 4.5 12.5 0 7.1-2.1 12.4-6.3 15.9-4.2 3.6-10.6 5.3-19.2 5.3-4.1 0-8.2-.4-12.3-1.2-4.1-.8-8.2-1.9-12.3-3.5v-14c4.1 2.2 8.1 3.8 11.9 5C38.7 69.4 42.4 70 46 70c3.6 0 6.4-.6 8.3-1.8 1.9-1.2 2.9-2.9 2.9-5.2 0-2-.7-3.6-2-4.7s-3.9-2.1-7.8-2.9L41 53.9c-6.4-1.4-11.1-3.6-14.1-6.6-3-3-4.5-7.1-4.5-12.2 0-6.4 2.1-11.4 6.2-14.8 4.1-3.5 10.1-5.2 17.8-5.2 3.5 0 7.2.3 10.9.8 3.8.5 7.6 1.3 11.6 2.3z" fill="#FFF"/></svg>